<svg width="416" height="370" viewBox="0 0 416 370" fill="none" xmlns="http://www.w3.org/2000/svg">
<g filter="url(#filter0_d_2_2)">
<rect width="470.48" height="478.616" transform="translate(-22.0505 -50.9927) rotate(0.290142)" fill="white"/>
<path d="M303.681 273.059L100.061 321.542C93.154 323.179 85.8408 322.158 79.7258 318.703C73.6108 315.249 69.1934 309.643 67.4427 303.116L7.0821 76.9941C5.34699 70.463 6.42247 63.5493 10.0726 57.7699C13.7228 51.9904 19.6495 47.8172 26.5525 46.1657L215.987 1.06018L264.31 21.8018L323.151 242.23C324.886 248.761 323.811 255.675 320.161 261.455C316.51 267.234 310.584 271.407 303.681 273.059V273.059Z" fill="#F2F2F2"/>
<path d="M28.4452 53.2553C23.5294 54.4313 19.3089 57.4032 16.7095 61.5189C14.1102 65.6345 13.3443 70.5579 14.5799 75.2089L74.9405 301.331C76.1872 305.979 79.3329 309.971 83.6876 312.431C88.0422 314.891 93.2501 315.618 98.1687 314.452L301.788 265.969C306.704 264.793 310.925 261.821 313.524 257.706C316.123 253.59 316.889 248.667 315.654 244.016L257.724 27.0024L215.257 8.77423L28.4452 53.2553Z" fill="white"/>
<path d="M263.788 22.964L232.275 30.4674C229.974 31.0152 227.537 30.6764 225.5 29.5255C223.463 28.3746 221.992 26.506 221.411 24.3306L215.536 2.32219C215.511 2.22584 215.514 2.1246 215.547 2.03008C215.579 1.93556 215.639 1.8516 215.719 1.78781C215.8 1.72402 215.898 1.68299 216.002 1.66942C216.106 1.65586 216.212 1.67031 216.308 1.71112L263.88 21.9694C263.986 22.0145 264.075 22.0896 264.133 22.1843C264.192 22.279 264.218 22.3887 264.208 22.498C264.198 22.6073 264.152 22.7109 264.077 22.7944C264.001 22.8779 263.9 22.9372 263.788 22.964V22.964Z" fill="#F2F2F2"/>
<path d="M246.253 215.717L153.548 237.791C152.978 237.927 152.386 237.955 151.805 237.874C151.224 237.793 150.665 237.605 150.16 237.32C149.656 237.035 149.216 236.659 148.865 236.213C148.514 235.768 148.26 235.261 148.116 234.723C147.972 234.184 147.942 233.624 148.027 233.075C148.112 232.525 148.311 231.997 148.612 231.52C148.913 231.044 149.311 230.628 149.782 230.296C150.253 229.965 150.789 229.725 151.358 229.589L244.063 207.515C244.633 207.38 245.225 207.351 245.807 207.432C246.388 207.513 246.947 207.701 247.451 207.986C247.955 208.271 248.395 208.647 248.746 209.093C249.097 209.539 249.352 210.045 249.495 210.584C249.639 211.122 249.669 211.682 249.584 212.232C249.499 212.781 249.3 213.309 248.999 213.786C248.698 214.263 248.301 214.679 247.829 215.01C247.358 215.341 246.823 215.582 246.253 215.717Z" fill="#CCCCCC"/>
<path d="M267.838 225.299L157.243 251.632C156.092 251.906 154.874 251.737 153.855 251.161C152.836 250.586 152.101 249.651 151.811 248.564C151.52 247.476 151.699 246.324 152.307 245.361C152.915 244.399 153.903 243.704 155.053 243.43L265.649 217.097C266.799 216.824 268.016 216.994 269.034 217.569C270.052 218.145 270.787 219.079 271.077 220.166C271.367 221.253 271.189 222.404 270.581 223.367C269.974 224.329 268.988 225.024 267.838 225.299V225.299Z" fill="#CCCCCC"/>
<path d="M115.62 264.75C124.351 264.794 131.464 258.138 131.505 249.883C131.547 241.627 124.503 234.899 115.771 234.855C107.04 234.811 99.9276 241.467 99.8858 249.722C99.844 257.978 106.888 264.706 115.62 264.75Z" fill="#E6E6E6"/>
<path d="M236.606 176.549L113.484 205.854C109.926 206.697 106.159 206.171 103.009 204.391C99.8588 202.611 97.5834 199.723 96.6818 196.361L71.3912 101.581C70.4976 98.2169 71.052 94.6553 72.9327 91.6782C74.8134 88.701 77.8667 86.5515 81.4229 85.701L204.545 56.3962C208.103 55.5533 211.87 56.0794 215.02 57.8592C218.17 59.639 220.446 62.527 221.347 65.8897L246.638 160.669C247.531 164.034 246.977 167.595 245.096 170.572C243.216 173.549 240.162 175.699 236.606 176.549Z" fill="white"/>
<path d="M236.606 176.549L113.484 205.854C109.926 206.697 106.159 206.171 103.009 204.391C99.8588 202.611 97.5834 199.723 96.6818 196.361L71.3912 101.581C70.4976 98.2169 71.052 94.6553 72.9327 91.6782C74.8134 88.701 77.8667 86.5515 81.4229 85.701L204.545 56.3962C208.103 55.5533 211.87 56.0794 215.02 57.8592C218.17 59.639 220.446 62.527 221.347 65.8897L246.638 160.669C247.531 164.034 246.977 167.595 245.096 170.572C243.216 173.549 240.162 175.699 236.606 176.549ZM81.8212 87.1936C78.6834 87.944 75.9893 89.8407 74.3299 92.4676C72.6705 95.0945 72.1813 98.237 72.9697 101.206L98.2604 195.985C99.0559 198.952 101.064 201.5 103.843 203.071C106.622 204.641 109.946 205.105 113.086 204.362L236.208 175.057C239.346 174.306 242.04 172.41 243.699 169.783C245.359 167.156 245.848 164.013 245.059 161.045L219.769 66.2654C218.973 63.2983 216.965 60.7501 214.186 59.1797C211.407 57.6093 208.082 57.145 204.943 57.8887L81.8212 87.1936Z" fill="#E6E6E6"/>
<path d="M198.145 88.1892L136.007 102.979C135.464 103.119 134.884 103.06 134.386 102.812C133.887 102.564 133.506 102.146 133.321 101.643C133.235 101.38 133.206 101.104 133.236 100.83C133.267 100.557 133.356 100.292 133.498 100.052C133.641 99.8124 133.833 99.6027 134.064 99.4356C134.295 99.2686 134.56 99.1478 134.842 99.0807L198.094 84.0256C200.64 85.261 199.956 87.7581 198.144 88.1894L198.145 88.1892Z" fill="#F2F2F2"/>
<path d="M200.895 98.4955L138.757 113.285C138.214 113.426 137.634 113.366 137.136 113.118C136.637 112.87 136.256 112.452 136.071 111.949C135.985 111.686 135.956 111.41 135.987 111.136C136.017 110.863 136.106 110.598 136.249 110.358C136.391 110.119 136.583 109.909 136.814 109.742C137.045 109.575 137.31 109.454 137.592 109.387L200.845 94.3319C203.39 95.5673 202.706 98.0644 200.894 98.4957L200.895 98.4955Z" fill="#F2F2F2"/>
<path d="M126.89 122.351L107.926 126.864C107.307 127.011 106.651 126.919 106.103 126.61C105.555 126.3 105.159 125.797 105.002 125.212L99.3551 104.051C99.1995 103.465 99.296 102.845 99.6233 102.327C99.9507 101.809 100.482 101.434 101.101 101.287L120.065 96.7728C120.684 96.6262 121.34 96.7179 121.888 97.0277C122.437 97.3374 122.833 97.84 122.99 98.4253L128.636 119.586C128.792 120.172 128.695 120.792 128.368 121.31C128.041 121.828 127.509 122.203 126.89 122.351L126.89 122.351Z" fill="#E6E6E6"/>
<path d="M206.345 119.641L111.511 142.213C110.968 142.353 110.388 142.293 109.89 142.045C109.391 141.797 109.011 141.379 108.825 140.876C108.739 140.614 108.71 140.337 108.741 140.064C108.771 139.79 108.86 139.526 109.003 139.286C109.145 139.046 109.338 138.836 109.569 138.669C109.8 138.502 110.064 138.381 110.346 138.314L206.295 115.477C208.841 116.712 208.157 119.209 206.345 119.641L206.345 119.641Z" fill="#F2F2F2"/>
<path d="M209.096 129.95L114.262 152.522C113.719 152.662 113.139 152.603 112.641 152.355C112.142 152.106 111.762 151.689 111.576 151.186C111.49 150.923 111.461 150.647 111.492 150.373C111.522 150.1 111.611 149.835 111.754 149.595C111.896 149.355 112.089 149.146 112.32 148.979C112.551 148.812 112.815 148.691 113.097 148.624L209.046 125.786C211.592 127.022 210.908 129.519 209.096 129.95L209.096 129.95Z" fill="#F2F2F2"/>
<path d="M211.845 140.253L117.011 162.825C116.468 162.965 115.889 162.905 115.39 162.657C114.891 162.409 114.511 161.991 114.325 161.488C114.239 161.226 114.21 160.949 114.241 160.676C114.271 160.402 114.36 160.137 114.503 159.898C114.645 159.658 114.838 159.448 115.069 159.281C115.3 159.114 115.564 158.993 115.846 158.926L211.795 136.089C214.341 137.324 213.657 139.821 211.845 140.253V140.253Z" fill="#F2F2F2"/>
<path d="M214.596 150.561L119.762 173.133C119.219 173.274 118.639 173.214 118.141 172.966C117.642 172.718 117.261 172.3 117.076 171.797C116.99 171.534 116.961 171.258 116.991 170.984C117.022 170.711 117.111 170.446 117.253 170.206C117.396 169.967 117.588 169.757 117.819 169.59C118.05 169.423 118.315 169.302 118.597 169.235L214.546 146.397C217.092 147.633 216.408 150.13 214.596 150.561L214.596 150.561Z" fill="#F2F2F2"/>
<path d="M217.345 160.864L122.511 183.436C121.968 183.577 121.389 183.517 120.89 183.269C120.391 183.021 120.011 182.603 119.825 182.1C119.739 181.838 119.71 181.561 119.741 181.288C119.771 181.014 119.86 180.749 120.003 180.51C120.145 180.27 120.338 180.06 120.569 179.893C120.8 179.726 121.064 179.605 121.346 179.538L217.295 156.701C219.841 157.936 219.157 160.433 217.345 160.864V160.864Z" fill="#F2F2F2"/>
<path d="M116.836 255.048C116.491 255.131 116.127 255.105 115.799 254.975L115.778 254.967L111.48 253.219C111.281 253.138 111.1 253.021 110.949 252.874C110.797 252.727 110.678 252.553 110.597 252.362C110.517 252.171 110.477 251.968 110.48 251.762C110.483 251.557 110.529 251.355 110.615 251.166C110.701 250.978 110.825 250.807 110.981 250.664C111.136 250.521 111.32 250.409 111.522 250.333C111.724 250.258 111.939 250.221 112.157 250.224C112.374 250.227 112.588 250.271 112.787 250.352L115.572 251.489L119.27 243.374C119.356 243.185 119.48 243.015 119.636 242.872C119.791 242.73 119.975 242.617 120.176 242.542C120.378 242.466 120.593 242.429 120.81 242.432C121.026 242.435 121.24 242.478 121.439 242.559L121.44 242.559L121.418 242.612L121.441 242.559C121.842 242.724 122.159 243.032 122.321 243.416C122.482 243.801 122.476 244.231 122.303 244.611L117.952 254.152C117.851 254.372 117.698 254.567 117.505 254.722C117.311 254.877 117.083 254.988 116.836 255.046L116.836 255.048Z" fill="white"/>
<path d="M381.249 359.504L171.246 358.441C164.124 358.397 157.31 355.685 152.299 350.898C147.287 346.112 144.487 339.642 144.514 332.909L145.694 99.732C145.736 92.9991 148.602 86.5584 153.661 81.823C158.721 77.0875 165.562 74.4441 172.684 74.4725L368.058 75.4619L409.39 106.938L408.239 334.245C408.197 340.978 405.332 347.418 400.272 352.154C395.212 356.889 388.371 359.533 381.249 359.504V359.504Z" fill="#E6E6E6"/>
<path d="M172.647 81.7834C167.575 81.7631 162.704 83.6456 159.1 87.0178C155.497 90.39 153.457 94.9765 153.427 99.7712L152.246 332.948C152.228 337.743 154.221 342.35 157.79 345.759C161.359 349.167 166.211 351.099 171.283 351.13L381.286 352.193C386.358 352.214 391.229 350.331 394.833 346.959C398.436 343.587 400.476 339 400.506 334.206L401.639 110.421L365.316 82.7591L172.647 81.7834Z" fill="white"/>
<path d="M341.461 150.442L245.85 149.957C244.663 149.951 243.528 149.5 242.693 148.703C241.858 147.905 241.392 146.827 241.398 145.706C241.404 144.584 241.88 143.511 242.723 142.722C243.566 141.933 244.706 141.493 245.892 141.499L341.504 141.984C342.69 141.99 343.826 142.441 344.661 143.238C345.496 144.036 345.961 145.114 345.956 146.235C345.95 147.357 345.473 148.43 344.631 149.219C343.788 150.008 342.648 150.448 341.461 150.442V150.442Z" fill="#273689"/>
<path d="M359.84 164.808L245.777 164.23C244.592 164.223 243.458 163.771 242.625 162.974C241.791 162.177 241.326 161.099 241.332 159.979C241.337 158.858 241.813 157.786 242.655 156.997C243.496 156.208 244.635 155.768 245.82 155.772L359.883 156.35C360.471 156.352 361.053 156.464 361.595 156.679C362.138 156.894 362.63 157.208 363.044 157.603C363.458 157.998 363.785 158.466 364.008 158.98C364.231 159.495 364.344 160.046 364.341 160.602C364.338 161.158 364.219 161.707 363.992 162.22C363.764 162.732 363.431 163.197 363.013 163.587C362.595 163.978 362.1 164.287 361.556 164.497C361.011 164.706 360.428 164.812 359.84 164.808V164.808Z" fill="#273689"/>
<path d="M341.181 205.945L245.572 205.461C244.386 205.455 243.246 205.895 242.403 206.684C241.56 207.473 241.084 208.546 241.078 209.667C241.072 210.789 241.538 211.867 242.373 212.664C243.208 213.461 244.343 213.913 245.529 213.919L341.138 214.403C342.324 214.409 343.464 213.969 344.307 213.18C345.15 212.391 345.626 211.318 345.632 210.197C345.638 209.075 345.172 207.997 344.337 207.2C343.502 206.403 342.367 205.951 341.181 205.945V205.945Z" fill="#CCCCCC"/>
<path d="M359.561 220.314L245.5 219.737C244.314 219.731 243.174 220.17 242.331 220.959C241.488 221.748 241.011 222.821 241.006 223.943C241 225.064 241.466 226.142 242.301 226.939C243.135 227.737 244.271 228.188 245.457 228.194L359.518 228.772C360.704 228.778 361.844 228.338 362.687 227.549C363.53 226.76 364.007 225.687 364.012 224.566C364.018 223.444 363.552 222.366 362.718 221.569C361.883 220.771 360.747 220.32 359.561 220.314Z" fill="#CCCCCC"/>
<path d="M340.813 278.37L245.202 277.886C244.015 277.88 242.88 277.428 242.045 276.631C241.21 275.834 240.744 274.756 240.75 273.634C240.756 272.513 241.233 271.439 242.075 270.65C242.918 269.862 244.058 269.422 245.245 269.428L340.856 269.912C342.043 269.918 343.178 270.369 344.013 271.167C344.848 271.964 345.314 273.042 345.308 274.164C345.302 275.285 344.826 276.358 343.983 277.147C343.14 277.936 342 278.376 340.813 278.37V278.37Z" fill="#CCCCCC"/>
<path d="M359.193 292.736L245.13 292.159C243.944 292.151 242.81 291.699 241.977 290.902C241.143 290.105 240.678 289.028 240.684 287.907C240.69 286.787 241.165 285.714 242.007 284.925C242.849 284.137 243.987 283.696 245.172 283.701L359.235 284.278C359.823 284.281 360.405 284.392 360.947 284.607C361.49 284.822 361.982 285.136 362.396 285.531C362.81 285.926 363.138 286.394 363.36 286.909C363.583 287.423 363.696 287.974 363.693 288.53C363.69 289.086 363.572 289.636 363.344 290.148C363.116 290.66 362.784 291.125 362.366 291.516C361.948 291.907 361.452 292.215 360.908 292.425C360.363 292.634 359.78 292.74 359.193 292.736Z" fill="#CCCCCC"/>
<path d="M205.944 167.611C214.676 167.655 221.788 160.999 221.83 152.743C221.871 144.488 214.827 137.76 206.095 137.716C197.364 137.672 190.252 144.328 190.21 152.583C190.168 160.838 197.213 167.566 205.944 167.611Z" fill="#273689"/>
<path d="M204.424 158.357C204.069 158.356 203.723 158.246 203.439 158.042L203.422 158.03L199.72 155.324C199.548 155.198 199.404 155.042 199.296 154.864C199.188 154.686 199.118 154.489 199.09 154.286C199.063 154.082 199.078 153.875 199.135 153.677C199.192 153.479 199.289 153.294 199.422 153.132C199.555 152.969 199.721 152.833 199.909 152.732C200.098 152.63 200.306 152.565 200.521 152.539C200.737 152.513 200.955 152.528 201.165 152.583C201.374 152.637 201.57 152.73 201.742 152.856L204.139 154.613L209.862 147.627C209.995 147.466 210.16 147.33 210.348 147.228C210.536 147.127 210.744 147.061 210.959 147.035C211.174 147.01 211.392 147.024 211.601 147.078C211.81 147.132 212.006 147.225 212.177 147.35L212.178 147.351L212.142 147.397L212.179 147.351C212.524 147.605 212.75 147.978 212.805 148.388C212.86 148.799 212.741 149.213 212.473 149.54L205.742 157.753C205.586 157.943 205.387 158.095 205.158 158.2C204.93 158.304 204.679 158.358 204.426 158.356L204.424 158.357Z" fill="white"/>
<path d="M223.131 216.714C223.121 218.677 222.703 220.619 221.9 222.429C221.097 224.239 219.924 225.882 218.45 227.263C216.975 228.644 215.226 229.737 213.304 230.479C211.382 231.22 209.324 231.597 207.248 231.587C207.112 231.589 206.976 231.583 206.841 231.569C203.733 231.478 200.721 230.522 198.184 228.822C195.646 227.121 193.695 224.751 192.575 222.007C191.454 219.264 191.214 216.27 191.884 213.4C192.555 210.529 194.106 207.91 196.343 205.869C198.581 203.829 201.406 202.458 204.464 201.928C207.522 201.398 210.679 201.733 213.538 202.891C216.397 204.048 218.832 205.977 220.538 208.436C222.245 210.895 223.146 213.774 223.131 216.714V216.714Z" fill="#CCCCCC"/>
<path d="M205.296 295.539C214.028 295.583 221.14 288.927 221.182 280.672C221.224 272.417 214.179 265.689 205.448 265.644C196.716 265.6 189.604 272.256 189.562 280.512C189.52 288.767 196.565 295.495 205.296 295.539Z" fill="#CCCCCC"/>
<path d="M408.577 107.941L376.076 107.776C373.704 107.764 371.433 106.861 369.763 105.267C368.093 103.672 367.162 101.516 367.173 99.2726L367.288 76.5775C367.288 76.4781 367.319 76.3809 367.375 76.297C367.431 76.2131 367.511 76.146 367.606 76.1032C367.701 76.0604 367.807 76.0438 367.911 76.0552C368.015 76.0666 368.114 76.1056 368.196 76.1677L408.929 106.999C409.02 107.068 409.086 107.162 409.118 107.267C409.149 107.373 409.146 107.485 409.107 107.588C409.068 107.692 408.997 107.781 408.902 107.845C408.807 107.908 408.693 107.941 408.577 107.941Z" fill="#CCCCCC"/>
<path d="M223.131 216.714C223.121 218.677 222.703 220.619 221.9 222.429C221.097 224.239 219.924 225.882 218.449 227.263C216.975 228.644 215.226 229.737 213.304 230.479C211.382 231.22 209.324 231.597 207.248 231.587C207.112 231.589 206.976 231.583 206.841 231.569C204.823 226.743 204.062 221.528 204.622 216.367C205.182 211.205 207.047 206.247 210.06 201.911C213.734 202.525 217.062 204.348 219.453 207.057C221.845 209.766 223.148 213.187 223.131 216.714V216.714Z" fill="#273689"/>
<path d="M241.074 209.671C241.082 208.549 241.56 207.476 242.403 206.687C243.246 205.898 244.386 205.457 245.572 205.461L269.397 205.582C270.775 208.265 271.75 211.117 272.293 214.054L245.529 213.919C244.344 213.912 243.209 213.462 242.373 212.665C241.538 211.869 241.071 210.792 241.074 209.671V209.671Z" fill="#273689"/>
<path d="M272.817 219.875C272.804 222.731 272.39 225.573 271.586 228.326L245.457 228.194C244.271 228.188 243.135 227.737 242.301 226.939C241.466 226.142 241 225.064 241.006 223.943C241.011 222.821 241.488 221.748 242.331 220.959C243.174 220.17 244.314 219.731 245.5 219.737L272.817 219.875Z" fill="#273689"/>
</g>
<defs>
<filter id="filter0_d_2_2" x="-28.4742" y="-50.9927" width="480.898" height="488.993" filterUnits="userSpaceOnUse" color-interpolation-filters="sRGB">
<feFlood flood-opacity="0" result="BackgroundImageFix"/>
<feColorMatrix in="SourceAlpha" type="matrix" values="0 0 0 0 0 0 0 0 0 0 0 0 0 0 0 0 0 0 127 0" result="hardAlpha"/>
<feOffset dy="4"/>
<feGaussianBlur stdDeviation="2"/>
<feComposite in2="hardAlpha" operator="out"/>
<feColorMatrix type="matrix" values="0 0 0 0 0 0 0 0 0 0 0 0 0 0 0 0 0 0 0.25 0"/>
<feBlend mode="normal" in2="BackgroundImageFix" result="effect1_dropShadow_2_2"/>
<feBlend mode="normal" in="SourceGraphic" in2="effect1_dropShadow_2_2" result="shape"/>
</filter>
</defs>
</svg>
